<?xml version="1.0" standalone="no"?><!DOCTYPE svg PUBLIC "-//W3C//DTD SVG 1.1//EN" "http://www.w3.org/Graphics/SVG/1.1/DTD/svg11.dtd"><svg t="1626145491649" class="icon" viewBox="0 0 1024 1024" version="1.1" xmlns="http://www.w3.org/2000/svg" p-id="35092" xmlns:xlink="http://www.w3.org/1999/xlink" width="600" height="600"><defs><style type="text/css"></style></defs><path d="M848 472c8.82 0 16 7.18 16 16v361c0 8.82-7.18 16-16 16H178c-8.82 0-16-7.18-16-16V488c0-8.82 7.18-16 16-16h670m0-64H178c-44.18 0-80 35.82-80 80v361c0 44.18 35.82 80 80 80h670c44.18 0 80-35.82 80-80V488c0-44.18-35.82-80-80-80z" p-id="35093" fill="#FF9F00"></path><path d="M513 128c50.75 0 98.46 19.76 134.35 55.65S703 267.25 703 318v90H323v-90c0-50.75 19.76-98.46 55.65-134.35S462.25 128 513 128m0-64c-140.28 0-254 113.72-254 254v154h508V318c0-140.28-113.72-254-254-254zM512 583.75c19.85 0 36 16.15 36 36s-16.15 36-36 36-36-16.15-36-36 16.15-36 36-36m0-64c-55.23 0-100 44.77-100 100s44.77 100 100 100 100-44.77 100-100-44.77-100-100-100z" p-id="35094" fill="#FF9F00"></path><path d="M512 679.25c-15.19 0-27.5 12.31-27.5 27.5v83c0 15.19 12.31 27.5 27.5 27.5s27.5-12.31 27.5-27.5v-83c0-15.19-12.31-27.5-27.5-27.5z" p-id="35095" fill="#FF9F00"></path></svg>