<?xml version="1.0" standalone="no"?><!DOCTYPE svg PUBLIC "-//W3C//DTD SVG 1.1//EN" "http://www.w3.org/Graphics/SVG/1.1/DTD/svg11.dtd"><svg t="1626144760113" class="icon" viewBox="0 0 1024 1024" version="1.1" xmlns="http://www.w3.org/2000/svg" p-id="6742" xmlns:xlink="http://www.w3.org/1999/xlink" width="600" height="600"><defs><style type="text/css"></style></defs><path d="M512 64C264.6 64 64 264.6 64 512s200.6 448 448 448 448-200.6 448-448S759.4 64 512 64z m226.3 334.9L466.8 670.4c-6.2 6.2-14.4 9.3-22.6 9.3s-16.4-3.1-22.7-9.3L285.7 534.6c-12.4-12.4-12.4-32.8 0-45.3 12.4-12.4 32.8-12.4 45.3 0l113.2 113.1L693 353.6c12.4-12.4 32.8-12.4 45.3 0 12.4 12.5 12.4 32.8 0 45.3z" fill="#FF4243" p-id="6743"></path></svg>