<?xml version="1.0" standalone="no"?><!DOCTYPE svg PUBLIC "-//W3C//DTD SVG 1.1//EN" "http://www.w3.org/Graphics/SVG/1.1/DTD/svg11.dtd"><svg t="1626073135107" class="icon" viewBox="0 0 1024 1024" version="1.1" xmlns="http://www.w3.org/2000/svg" p-id="55413" xmlns:xlink="http://www.w3.org/1999/xlink" width="600" height="600"><defs><style type="text/css"></style></defs><path d="M541.696 558.592 541.696 558.592c-16.384 0-29.184-13.312-29.184-29.184l0-98.816c0-16.384 13.312-29.184 29.184-29.184l0 0c16.384 0 29.184 13.312 29.184 29.184l0 98.816C570.88 545.28 557.568 558.592 541.696 558.592z" p-id="55414" fill="#3B3B3B"></path><path d="M677.376 558.592 677.376 558.592c-16.384 0-29.184-13.312-29.184-29.184l0-98.816c0-16.384 13.312-29.184 29.184-29.184l0 0c16.384 0 29.184 13.312 29.184 29.184l0 98.816C706.56 545.28 693.76 558.592 677.376 558.592z" p-id="55415" fill="#3B3B3B"></path><path d="M604.672 111.104" p-id="55416" fill="#3B3B3B"></path><path d="M524.288 214.016c177.664 0 322.56 144.384 322.56 322.56s-144.384 322.56-322.56 322.56-322.56-144.384-322.56-322.56c0-81.408 30.72-159.232 86.016-219.136l0.512-0.512c10.752-10.752 16.896-25.6 16.896-41.472l0-26.112c10.24 7.68 22.528 11.776 35.328 11.776 8.704 0 17.92-2.048 26.112-6.144l1.024-0.512c0.512-0.512 1.536-0.512 2.048-1.024C416.768 227.328 470.016 214.016 524.288 214.016M524.288 155.136c-66.048 0-128.512 16.896-182.784 46.592l-1.024 0.512c-23.04-26.112-56.32-41.984-93.696-41.984 0 63.488 0 115.2 0 115.2L245.76 276.48c-63.488 68.096-102.4 159.232-102.4 259.584 0 210.432 170.496 380.928 380.928 380.928 210.432 0 380.928-170.496 380.928-380.928C905.216 325.632 734.72 155.136 524.288 155.136L524.288 155.136z" p-id="55417" fill="#3B3B3B"></path></svg>