<?xml version="1.0" standalone="no"?><!DOCTYPE svg PUBLIC "-//W3C//DTD SVG 1.1//EN" "http://www.w3.org/Graphics/SVG/1.1/DTD/svg11.dtd"><svg t="1626162136837" class="icon" viewBox="0 0 1024 1024" version="1.1" xmlns="http://www.w3.org/2000/svg" p-id="8982" xmlns:xlink="http://www.w3.org/1999/xlink" width="600" height="600"><defs><style type="text/css"></style></defs><path d="M780.57472 250.88c34.60608 0 62.8224 27.35104 64.17408 61.5936l0.0512 2.5856v215.95136a17.5104 17.5104 0 0 1-17.51552 17.50528 17.5104 17.5104 0 0 1-17.4336-15.8208l-0.08192-1.68448V315.0592a29.184 29.184 0 0 0-27.27424-29.11232l-1.92-0.06144H243.42528a29.184 29.184 0 0 0-29.1328 27.25376l-0.06144 1.92v373.4016a29.184 29.184 0 0 0 27.27424 29.11232l1.92 0.06144h379.58656a17.5104 17.5104 0 0 1 1.6896 34.92352l-1.6896 0.08192H243.42528c-34.60608 0-62.8224-27.35104-64.17408-61.5936l-0.0512-2.5856v-373.4016c0-34.58048 27.3664-62.7712 61.6448-64.128l2.58048-0.0512h537.14944z" fill="#707070" p-id="8983"></path><path d="M829.44 389.12v35.84H199.68v-35.84z" fill="#707070" p-id="8984"></path><path d="M428.032 481.28c9.61536 0 17.408 8.02304 17.408 17.92 0 9.3184-6.90176 16.96768-15.73376 17.83808L428.032 517.12H288.768c-9.61536 0-17.408-8.02304-17.408-17.92 0-9.3184 6.90176-16.96768 15.73376-17.83808L288.768 481.28h139.264z" fill="#707070" p-id="8985"></path><path d="M770.56 563.2c-60.79488 0-110.08 49.28512-110.08 110.08s49.28512 110.08 110.08 110.08 110.08-49.28512 110.08-110.08-49.28512-110.08-110.08-110.08z m-2.56 35.84c42.41408 0 76.8 34.38592 76.8 76.8 0 42.41408-34.38592 76.8-76.8 76.8-42.41408 0-76.8-34.38592-76.8-76.8 0-42.41408 34.38592-76.8 76.8-76.8z" fill="#707070" p-id="8986"></path><path d="M754.34496 629.76c6.12864 0 11.17696 4.608 11.86816 10.55232l0.08192 1.39264v35.84h35.84c6.12352 0 11.17696 4.61312 11.86304 10.55744l0.08192 1.39264c0 6.12352-4.608 11.17696-10.55232 11.86304l-1.39264 0.08192h-47.79008c-6.12352 0-11.17696-4.608-11.86304-10.55232l-0.08192-1.39264v-47.79008a11.94496 11.94496 0 0 1 11.94496-11.94496z" fill="#707070" p-id="8987"></path></svg>