<?xml version="1.0" standalone="no"?><!DOCTYPE svg PUBLIC "-//W3C//DTD SVG 1.1//EN" "http://www.w3.org/Graphics/SVG/1.1/DTD/svg11.dtd"><svg t="1626162186168" class="icon" viewBox="0 0 1024 1024" version="1.1" xmlns="http://www.w3.org/2000/svg" p-id="10021" xmlns:xlink="http://www.w3.org/1999/xlink" width="600" height="600"><defs><style type="text/css"></style></defs><path d="M914.944 105.984H460.8c-47.104 0-85.504 38.912-85.504 86.016v56.832c-14.336-2.048-28.672-2.56-42.496-2.56-83.456 0-160.768 30.208-218.624 84.48C55.808 385.536 23.552 460.288 23.552 541.184v20.48c0 1.536 0.512 3.072 1.024 4.608v172.544c0 53.248 41.472 96.256 92.16 96.256H194.56c17.408 49.152 65.024 83.456 117.76 83.456 52.224 0 100.352-34.304 117.76-83.456h138.752c17.408 49.152 65.024 83.456 117.76 83.456 52.224 0 100.352-34.304 117.76-83.456h104.448c50.688 0 92.16-43.008 92.16-96.256V192c-0.512-47.616-38.912-86.016-86.016-86.016z m-288.768 718.848c-2.048-7.68-3.072-15.872-2.048-24.576l-2.048-18.432c-0.512-5.12-5.12-9.216-10.24-9.216h-225.28c-5.12 0-9.728 4.096-10.24 9.216l-2.048 18.432c-3.584 31.744-30.208 55.808-61.952 55.808-31.744 0-58.368-24.064-61.952-55.808l-2.048-18.432c-0.512-5.12-5.12-9.216-10.24-9.216H116.736c-16.384 0-29.696-15.36-29.696-33.792v-218.624C97.792 399.36 203.776 308.224 332.8 308.224c16.896 0 33.792 1.536 50.688 4.608l2.048 0.512h42.496c5.632 0 10.24-4.608 10.24-10.24V192c0-13.312 10.24-24.064 23.552-24.064h453.632c12.8 0 23.552 10.752 23.552 24.064v546.304c0 18.944-13.312 33.792-29.696 33.792h-147.968c-5.12 0-9.728 4.096-10.24 9.216l-2.048 18.432c0.512 4.608 0.512 8.704 0 13.312-0.512 4.096-1.024 7.68-2.56 11.264-10.24 19.456-29.696 33.28-52.224 35.84-29.184 3.584-55.296-11.264-68.096-35.328z" fill="#707070" p-id="10022"></path><path d="M431.104 381.44h-41.472c-5.632 0-10.24 4.608-10.24 10.24v109.568H196.608c-5.632 0-10.24 4.608-10.24 10.24v41.472c0 5.632 4.608 10.24 10.24 10.24h234.496c5.632 0 10.24-4.608 10.24-10.24V391.68c0-5.632-4.608-10.24-10.24-10.24z" fill="#707070" p-id="10023"></path></svg>