<?xml version="1.0" standalone="no"?><!DOCTYPE svg PUBLIC "-//W3C//DTD SVG 1.1//EN" "http://www.w3.org/Graphics/SVG/1.1/DTD/svg11.dtd"><svg t="1626167392690" class="icon" viewBox="0 0 1024 1024" version="1.1" xmlns="http://www.w3.org/2000/svg" p-id="12341" xmlns:xlink="http://www.w3.org/1999/xlink" width="600" height="600"><defs><style type="text/css"></style></defs><path d="M478.94 761.19c8.23 9.79 20.27 15.41 33.06 15.41s24.83-5.62 33.06-15.41c15.86-18.88 71.55-86.47 121.98-163.32 62.23-94.82 92.48-166.01 92.48-217.63 0-66.7-25.55-129.31-71.95-176.3-46.62-47.21-108.97-73.21-175.57-73.21s-128.95 26-175.56 73.21c-46.4 46.99-71.95 109.6-71.95 176.3 0 51.62 30.25 122.81 92.48 217.63 50.43 76.85 106.11 144.44 121.97 163.32zM512 190.73c103.39 0 187.51 85.01 187.51 189.51 0 21.96-10.74 75.15-82.64 184.71-39.23 59.78-81.82 113.83-104.87 142.07-23.05-28.24-65.64-82.29-104.87-142.07-71.9-109.56-82.64-162.76-82.64-184.71 0-104.5 84.12-189.51 187.51-189.51z" fill="#bfbfbf" p-id="12342"></path><path d="M512 368.66m-66.96 0a66.96 66.96 0 1 0 133.92 0 66.96 66.96 0 1 0-133.92 0Z" fill="#bfbfbf" p-id="12343"></path><path d="M629.98 720.26c-14.54 7.94-19.89 26.17-11.95 40.71 2.62 4.8 3.89 9.46 3.89 14.25 0 12.65-9.83 26.09-26.96 36.87-21.39 13.46-51.63 21.18-82.96 21.18s-61.57-7.72-82.96-21.18c-17.13-10.78-26.96-24.22-26.96-36.87 0-4.79 1.27-9.45 3.89-14.25 7.94-14.54 2.59-32.77-11.95-40.71-14.54-7.94-32.77-2.59-40.71 11.95-7.45 13.65-11.23 28.12-11.23 43 0 66.2 74.64 118.05 169.92 118.05s169.92-51.85 169.92-118.05c0-14.89-3.78-29.36-11.23-43-7.94-14.54-26.17-19.89-40.71-11.95z" fill="#bfbfbf" p-id="12344"></path></svg>