<?xml version="1.0" standalone="no"?><!DOCTYPE svg PUBLIC "-//W3C//DTD SVG 1.1//EN" "http://www.w3.org/Graphics/SVG/1.1/DTD/svg11.dtd"><svg t="1626161522928" class="icon" viewBox="0 0 1024 1024" version="1.1" xmlns="http://www.w3.org/2000/svg" p-id="7373" xmlns:xlink="http://www.w3.org/1999/xlink" width="600" height="600"><defs><style type="text/css"></style></defs><path d="M616.85 842.75c-10.35 0-21.15-4.05-28.35-10.8-11.25-9.9-48.6-39.15-75.6-39.15s-64.8 29.25-75.6 39.15c-11.7 10.8-30.15 13.5-44.55 7.65l-2.25-0.9-108.9-63c-12.6-9.45-19.35-27-15.75-42.3 3.15-14.85 9.9-61.65-3.6-85.05-13.5-22.95-57.6-40.95-72-45.9-14.4-4.5-26.55-18.45-29.25-33.3-0.45-1.35-6.3-38.25-6.3-65.25S161 440.45 161 438.65c2.7-14.85 14.85-28.8 29.25-33.3s58.5-22.5 72-45.9c13.5-23.4 6.75-70.2 3.6-85.05-3.6-15.3 2.7-32.85 15.75-42.3l2.25-1.35 108-62.55c14.4-6.3 33.3-3.15 44.55 7.65C447.65 185.75 485 215 512 215s64.8-29.25 75.6-39.15c11.7-10.8 30.15-13.5 44.55-7.65l2.25 0.9 108.9 63c12.6 9.45 19.35 27 15.75 42.3-3.15 14.85-9.9 61.65 3.6 85.05 13.5 22.95 57.6 40.95 72 45.9 14.4 4.5 26.55 18.45 29.25 33.3 0.45 1.35 6.3 38.25 6.3 65.25s-6.3 63.45-6.3 65.25c-2.7 14.85-14.85 28.8-29.25 33.3s-58.5 22.5-72 45.9c-13.5 23.4-6.75 70.2-3.6 85.05 3.6 15.3-2.7 32.85-15.75 42.3l-2.25 1.35-108.9 63c-4.05 1.35-9.9 2.7-15.3 2.7z m-306.9-102.15l99 57.6c10.8-9.9 58.05-49.95 103.95-49.95 45.9 0 93.15 40.05 103.95 49.95l99-57.6c-2.7-13.95-13.95-75.15 9-114.75 23.4-40.95 85.05-61.65 95.85-65.25 0.9-6.3 5.85-35.55 5.85-56.7 0-21.15-4.5-50.85-5.85-56.7-11.25-3.6-72.45-24.75-95.85-65.25-22.95-39.6-11.7-100.8-9-114.75l-99-57.6c-10.8 9.9-58.05 49.95-103.95 49.95-45.9-0.45-93.15-40.5-104.4-49.95L309.5 266.75c2.7 13.95 13.95 75.15-9 114.75-23.4 40.5-84.6 61.65-95.85 65.25-0.9 6.3-5.85 35.55-5.85 56.7 0 21.15 4.5 50.85 5.85 56.7 11.25 3.6 72.45 24.75 95.85 65.25 22.95 40.05 12.15 100.8 9.45 115.2z m0 0" fill="#ffffff" p-id="7374"></path><path d="M512.9 652.4c-82.35 0-148.5-67.05-148.5-148.95s66.6-149.4 148.5-149.4 148.5 67.05 148.5 148.95-66.6 149.4-148.5 149.4z m0-254.25c-58.05 0-105.3 47.25-105.3 105.3 0 58.05 47.25 105.3 105.3 105.3 58.05 0 105.3-47.25 105.3-105.3-0.45-58.05-47.7-105.3-105.3-105.3z m0 0" fill="#ffffff" p-id="7375"></path></svg>