<?xml version="1.0" standalone="no"?><!DOCTYPE svg PUBLIC "-//W3C//DTD SVG 1.1//EN" "http://www.w3.org/Graphics/SVG/1.1/DTD/svg11.dtd"><svg t="1625904739780" class="icon" viewBox="0 0 1024 1024" version="1.1" xmlns="http://www.w3.org/2000/svg" p-id="11661" xmlns:xlink="http://www.w3.org/1999/xlink" width="200" height="200"><defs><style type="text/css"></style></defs><path d="M319.502 342.247c15.176 34.072-42.071 96.269-103.362 107.594-53.578 9.9-181.56-25.357-189.529 107.591 0 0-50.793 322.449 354.166 225.979 0 0 110.074-26.732 239.584-138.313 0 0 298.868-253.042 125.525-466.232 0 0-155.13-213.61-341.582-57.781-26.581 22.215-64.879 61.766-84.803 109.583-31.313 75.157-11.349 86.098 0.001 111.579z" fill="#E8AC1C" p-id="11662"></path><path d="M244.73 805.424h-0.003c-78.56 0-137.788-22.689-176.038-67.436-32.581-38.114-43.358-85.355-46.662-118.275-3.448-34.356 0.195-60.016 0.602-62.706 2.916-47.931 21.13-79.022 55.681-95.046 29.283-13.582 64.451-13.739 95.479-13.878 15.736-0.07 30.6-0.137 41.625-2.174 43.159-7.975 81.595-41.056 95.847-68.132 4.865-9.242 9.61-22.626 4.588-33.901-1.759-3.948-3.788-7.635-5.751-11.201-10.955-19.904-21.302-38.705 5.712-103.544 22.675-54.419 67.647-95.834 85.931-111.114C447.66 79.64 495.768 60.18 544.726 60.18c62.055 0 114.35 31.666 147.293 58.23 34.918 28.158 55.489 55.898 57.038 58.016 40.152 49.419 58.434 105.1 54.337 165.5-3.266 48.14-20.7 99.292-51.821 152.036-52.782 89.458-127.874 153.553-128.626 154.19-67.216 57.91-129.134 92.634-169.236 111.563-43.574 20.567-70.85 27.307-71.989 27.583-50.493 12.028-96.58 18.126-136.992 18.126zM544.726 68.179c-47.033 0-93.414 18.833-137.855 55.976-17.832 14.902-61.68 55.263-83.676 108.052-25.533 61.281-16.522 77.653-6.088 96.609 2.042 3.711 4.154 7.548 6.05 11.804 5.009 11.244 3.343 25.381-4.816 40.882-8.321 15.809-22.746 31.754-40.616 44.897-19.162 14.093-40.205 23.559-60.857 27.375-11.728 2.167-26.939 2.235-43.043 2.308-30.209 0.135-64.449 0.289-92.148 13.136-31.679 14.693-48.385 43.626-51.072 88.453a3.778 3.778 0 0 1-0.041 0.382c-0.041 0.261-4.053 26.512-0.55 61.104 3.212 31.725 13.592 77.199 44.796 113.678 36.662 42.857 93.831 64.589 169.919 64.589 39.79 0 85.251-6.023 135.123-17.904 0.255-0.062 27.801-6.886 70.709-27.164 39.593-18.712 100.739-53.035 167.191-110.287 0.77-0.651 74.95-63.996 127.027-152.333 69.366-117.664 68.695-221.406-1.994-308.346a4.382 4.382 0 0 1-0.133-0.172c-0.206-0.284-21.034-28.702-55.821-56.716-31.908-25.695-82.461-56.323-142.105-56.323z" fill="#4962A5" p-id="11663"></path><path d="M410.693 316.357c-5.946 14.603-8.226 40.888-20.018 54.335-4.547 0.195-9.238 2.82-12.292 6.813-6.403-3.368-15.01-2.828-19.981 5.018-10.702 16.895-32.522 36.559-46.375 55.033-9.09 12.124-19.603 30.08-18.591 45.847-15.079 16.695-37.435 27.195-59.609 29.197-19.034 1.719-19.202 31.619 0 29.888 28.973-2.615 56.583-14.469 77.126-34.532 28.765 15.333 68.499 0.577 86.624-23.761 18.226-24.475 18.613-59.616 10.377-88.986 17.226-16.983 21.628-46.527 31.559-70.909 7.271-17.856-21.653-25.546-28.82-7.943z m-37.227 150.201c-6.442 10.875-17.75 15.743-29.939 16.349-4.898 0.24-9.812 0.128-14.633-0.71 0.206-3.64-1.246-6.946-3.643-9.519 1.143-2.567 2.646-5.004 4.046-7.403 5.585-9.547 12.676-18.153 19.811-26.565 8.525-10.049 18.445-19.527 26.905-29.899 1.67-0.12 3.336-0.304 4.993-0.55 4.419 19.549 2.455 41.425-7.54 58.297z" fill="#F9F9F8" p-id="11664"></path><path d="M232.253 545.561c-10.385 0-15.39-7.913-15.744-15.755-0.406-9.006 5.431-19.144 17.047-20.193 21.505-1.941 42.65-12.126 56.825-27.319-0.47-16.576 10.131-34.382 19.244-46.537 6.251-8.336 14.118-16.93 21.726-25.24 9.625-10.514 18.717-20.445 24.516-29.599 3.421-5.4 8.669-8.374 14.775-8.374 2.331 0 4.69 0.448 6.935 1.309 3.187-3.292 7.396-5.492 11.599-6.039 6.784-8.409 10.224-22.04 13.273-34.117 1.725-6.834 3.355-13.29 5.465-18.471 3.014-7.402 9.691-11.822 17.862-11.822 6.446 0 12.395 2.892 15.525 7.546 2.766 4.113 3.117 9.255 0.989 14.48-2.924 7.18-5.42 14.996-7.833 22.554-5.604 17.55-11.393 35.678-23.155 48.092 9.229 34.44 5.037 67.945-11.319 89.91-13.907 18.674-39.154 31.222-62.821 31.222-9.338 0.01-17.936-1.888-25.669-5.615-20.398 19.2-47.793 31.21-77.397 33.883-0.621 0.056-1.241 0.085-1.843 0.085z m138.39-167.017c-2.814 0-6.782 0.969-9.707 5.584-6.083 9.603-15.349 19.724-25.158 30.439-7.51 8.204-15.276 16.687-21.351 24.788-7.16 9.55-19.019 27.946-17.998 43.854l0.082 1.264-0.849 0.939c-15.158 16.782-38.173 28.063-61.565 30.175-7.991 0.721-11.881 7.562-11.594 13.946 0.219 4.847 2.895 10.025 9.75 10.025 0.422 0 0.861-0.021 1.304-0.061 28.992-2.616 55.734-14.581 75.299-33.69l1.57-1.534 1.937 1.032c7.345 3.916 15.688 5.9 24.798 5.901 21.865 0 45.177-11.576 58.009-28.806 15.52-20.84 19.219-53.133 9.895-86.384l-0.478-1.704 1.26-1.242c11.55-11.388 17.061-28.644 22.894-46.913 2.449-7.667 4.98-15.596 7.993-22.992 1.39-3.413 1.251-6.396-0.411-8.869-2-2.974-6.14-4.895-10.547-4.895-5.644 0-10.244 3.022-12.305 8.084-1.952 4.793-3.531 11.051-5.204 17.677-3.326 13.175-7.096 28.107-15.336 37.505l-0.846 0.964-1.281 0.055c-3.651 0.157-7.498 2.318-10.038 5.639l-1.539 2.011-2.241-1.179c-2.01-1.053-4.204-1.613-6.343-1.613z m-31.449 107.473c-3.927 0-7.464-0.283-10.814-0.865l-2.632-0.458 0.151-2.667c0.188-3.314-1.442-5.801-2.843-7.304l-1.353-1.452 0.807-1.813c1.033-2.32 2.306-4.483 3.538-6.574l0.658-1.121c5.709-9.76 12.772-18.338 20.114-26.994 3.939-4.644 8.228-9.225 12.374-13.655 4.897-5.232 9.961-10.643 14.495-16.2l0.818-1.003 1.291-0.093a63.887 63.887 0 0 0 4.767-0.525l2.753-0.409 0.614 2.715c4.833 21.383 1.885 43.995-7.885 60.488-6.379 10.769-17.875 17.096-32.371 17.816a92.14 92.14 0 0 1-4.482 0.114z m-7.407-6.424c3.466 0.428 7.232 0.531 11.593 0.317 8.784-0.436 20.688-3.372 27.505-14.881 8.608-14.531 11.447-34.328 7.753-53.443-0.372 0.04-0.744 0.077-1.115 0.11-4.442 5.36-9.271 10.52-13.949 15.518-4.097 4.377-8.334 8.904-12.179 13.436-7.163 8.446-14.046 16.8-19.509 26.139l-0.668 1.138c-0.833 1.414-1.686 2.864-2.433 4.321 1.637 2.232 2.662 4.743 3.002 7.345z" fill="#4962A5" p-id="11665"></path><path d="M632.445 557.982c-33.14 14.505-98.1-6.485-120.622-8.887-245.329-26.142-245.929 135.129-176.944 242.617 38.455 59.92 98.533 80.34 149.896 97.057 27.05 8.804 52.534 15.129 80.884 17.91 157.616 15.471 381.354-18.092 426.976-189.767 0 0 63.172-290.798-165.168-240.96-60.785 13.269-48.892 18.075-195.022 82.03z" fill="#E8AC1C" p-id="11666"></path><path d="M635.056 914.05c-23.396 0-46.876-1.141-69.788-3.39-25.896-2.54-51.103-8.118-81.731-18.087-23.608-7.684-52.989-17.246-80.503-32.64-30.577-17.108-53.972-38.717-71.521-66.061-19.229-29.962-32.169-62.225-37.421-93.301-5.792-34.274-1.689-65.5 11.864-90.304 11.6-21.228 29.909-37.787 54.419-49.219 26.711-12.46 60.843-18.776 101.446-18.776 15.743 0 32.709 0.957 50.427 2.845 5.831 0.622 14.283 2.419 24.069 4.5 19.76 4.203 44.353 9.434 66.049 9.434 11.72 0 21.3-1.593 28.477-4.733 57.628-25.222 91.1-41.451 113.248-52.19 34.778-16.863 45.275-21.953 82.523-30.083 17.745-3.873 34.449-5.837 49.646-5.837 40.286 0 71.709 13.64 93.397 40.542 29.71 36.853 35.409 92.375 34.958 132.464-0.485 43.126-7.997 78.198-8.072 78.548l-0.043 0.179c-18.263 68.722-65.521 120.722-140.463 154.555-76.075 34.345-162.161 41.554-220.981 41.554zM461.82 550.273c-74.556 0-126.025 22.072-148.845 63.832-29.611 54.188-6.362 126.161 25.27 175.447 38.387 59.813 99.035 79.553 147.767 95.413 30.056 9.782 54.741 15.251 80.037 17.733 22.653 2.224 45.871 3.351 69.007 3.351 71.109 0 306.734-13.709 353.687-190.067 0.404-1.907 7.427-35.68 7.875-77.016 0.421-38.73-4.998-92.239-33.198-127.208-20.094-24.917-49.418-37.551-87.159-37.551-14.625 0-30.754 1.902-47.941 5.653-36.318 7.927-45.729 12.49-80.738 29.465-22.204 10.767-55.76 27.037-113.531 52.32-8.309 3.637-18.673 5.405-31.684 5.405-22.537 0-48.648-5.554-67.714-9.608-9.568-2.035-17.832-3.792-23.252-4.37-17.439-1.857-34.12-2.799-49.581-2.799z" fill="#4962A5" p-id="11667"></path><path d="M773.974 619.657a7.502 7.502 0 0 1-3.899-13.912c13.899-8.439 28.327-17.906 42.88-28.138a7.501 7.501 0 0 1 8.627 12.271c-14.826 10.423-29.536 20.075-43.722 28.688a7.454 7.454 0 0 1-3.886 1.091z" fill="#FBFCFD" p-id="11668"></path><path d="M599.303 680.765c-18.346 0-35.724-2.639-52.254-7.9a7.5 7.5 0 0 1 4.551-14.293c49.897 15.884 109.134 5.487 181.096-31.785a7.501 7.501 0 0 1 6.898 13.32c-52.463 27.171-98.832 40.658-140.291 40.658z" fill="#F7F9FA" p-id="11669"></path><path d="M511.817 654.173a7.47 7.47 0 0 1-4.471-1.482c-11.331-8.43-20.06-17.472-25.944-26.876a7.5 7.5 0 0 1 12.716-7.957c4.891 7.816 12.354 15.486 22.181 22.798a7.5 7.5 0 0 1-4.482 13.517z" fill="#FFFFFF" p-id="11670"></path></svg>