<?xml version="1.0" standalone="no"?><!DOCTYPE svg PUBLIC "-//W3C//DTD SVG 1.1//EN" "http://www.w3.org/Graphics/SVG/1.1/DTD/svg11.dtd"><svg t="1626071463430" class="icon" viewBox="0 0 1024 1024" version="1.1" xmlns="http://www.w3.org/2000/svg" p-id="13872" xmlns:xlink="http://www.w3.org/1999/xlink" width="16" height="16"><defs><style type="text/css"></style></defs><path d="M593.92 544.768l233.472-233.472c16.384-16.384 16.384-36.864 0-53.248s-36.864-16.384-53.248 0L540.672 491.52 307.2 258.048c-12.288-12.288-36.864-12.288-49.152 0-16.384 16.384-16.384 36.864 0 53.248l233.472 233.472L258.048 778.24c-16.384 16.384-16.384 36.864 0 53.248 8.192 8.192 16.384 12.288 24.576 12.288s20.48-4.096 24.576-12.288l233.472-233.472 233.472 233.472c8.192 8.192 16.384 12.288 24.576 12.288s20.48-4.096 24.576-12.288c16.384-16.384 16.384-36.864 0-53.248l-229.376-233.472z" p-id="13873"></path></svg>