<?xml version="1.0" standalone="no"?><!DOCTYPE svg PUBLIC "-//W3C//DTD SVG 1.1//EN" "http://www.w3.org/Graphics/SVG/1.1/DTD/svg11.dtd"><svg t="1625904638601" class="icon" viewBox="0 0 1024 1024" version="1.1" xmlns="http://www.w3.org/2000/svg" p-id="9898" xmlns:xlink="http://www.w3.org/1999/xlink" width="200" height="200"><defs><style type="text/css"></style></defs><path d="M183.5 893.1h720.8c25.6 0 38.7-25.1 20.8-40.1-50.4-42.2-154.2-103.4-336.6-109.5-184.2-6.1-337.5 60.1-421.3 106.4-23.6 13.1-12.2 43.2 16.3 43.2z" fill="#18A4A5" p-id="9899"></path><path d="M628.1 823.6S883 652 704.5 474.2l-81.3-78.4 53.5-26.3s315.2 204.6 96.9 457.2l-145.5-3.1z" fill="#F5D000" p-id="9900"></path><path d="M658.6 348.1c-0.2-0.1-0.3-0.1-0.5-0.2-3.5-1.8-53.3-26.7-119.9-2.9-4.2 1.5-5.9 5.6-3.6 8.8 2.5 3.6 0.2 8.1-4.7 9.1-20.4 4.4-67.9 15.4-91.5 28-4.5 2.4-4.7 7.6-0.4 10.2l7.7 4.7c4.8 3 3.8 9.1-1.9 10.8-19.4 5.9-54.3 19.2-70.5 42.5-0.2 0.3-0.3 0.5-0.5 0.8-1.6 3.4-13 26.2-24.9 39.3-3.6 3.9-0.3 9.6 5.7 9.9 31.3 1.8 97.3 3.5 126.1-11.3 4.1-2.1 9.5-0.5 11.2 3.2l3.9 8.4c1.5 3.1 5.7 4.8 9.6 3.7 15.4-4.3 51.8-16.4 67.5-37 3.3-4.3 11.2-3.7 13.5 0.9l1.1 2.1c1.8 3.5 6.9 4.9 10.9 3 18.2-8.6 64.1-33.3 80.9-71.4 0.6-1.5 1.4-2.9 2.3-4.3 5.4-7.3 23.6-38.8-22-58.3z m-100.1 57.1c-31 25.2-46 62.1-46 62.1-4.5-24 5.2-36.4 14.8-46.7-29.1 5-134.9 57.5-134.9 57.5 47.2-38.5 121.5-70.7 176.2-91.2-11.8-7.4-63.7-5-63.7-5 49.5-11.6 77.4-5.5 85.7-3C619.5 368.7 639 363 639 363l20.7 13c-33.1 5.5-68 16.4-101.2 29.2z" fill="#18A4A5" p-id="9901"></path><path d="M697.1 305.1c-0.1-0.1-0.1-0.3-0.1-0.4-0.8-3.4-13.3-49.8-80.5-72.4-4.2-1.4-9 0.4-10.3 4-1.4 3.9-7 5.7-11.3 3.6-18-9-60.6-29.3-88.1-34.4-5.2-1-10 2.5-9.4 6.8l1.2 7.7c0.7 4.9-5.5 8.5-10.9 6.4-18.6-7.3-54.6-18.6-86.4-12-0.4 0.1-0.7 0.2-1.1 0.3-4.1 1.4-32.2 10.5-52.1 12.6-6 0.6-8.7 6.4-4.8 10.2 20.1 19.6 64.4 59.6 97.4 66.3 4.7 1 7 5.2 5 8.8l-4.7 8.1c-1.8 3-0.3 6.7 3.4 8.2 14.5 6 50.4 19.1 79.5 14 6.1-1.1 11 4 8.6 8.6l-1.1 2.1c-1.8 3.4 0.4 7.4 4.9 8.5 20.2 4.8 73.8 14.6 119.1-1.9 1.7-0.6 3.5-1.2 5.4-1.6 10.2-2.1 50.6-13.2 36.3-53.5z m-119.8-19.3c-43.7-0.8-86.8 16-86.8 16 18.1-19.3 35.8-22.2 51.6-23.7-24.6-13.7-144.3-39.4-144.3-39.4 66.7 1.1 146.7 22.4 202.7 40.4-1.6-12.1-39.7-40.9-39.7-40.9 44.5 21 58.5 41.7 62 48.3 29.1 9.9 47.6 17.4 47.6 17.4l2.8 21.2c-27.9-15.6-61.6-28.6-95.9-39.3z" fill="#40D3CF" p-id="9902"></path><path d="M671.9 404.3a58.1 47.4 0 1 0 116.2 0 58.1 47.4 0 1 0-116.2 0Z" fill="#ED1C24" p-id="9903"></path><path d="M598.4 468.6a67.1 54.7 0 1 0 134.2 0 67.1 54.7 0 1 0-134.2 0Z" fill="#FFAEAE" p-id="9904"></path><path d="M710.8 376.2h0.5c4.2 0.2 62.5 2.1 106.3-45.3 2.8-3 1.8-7.2-2.2-9.2-4.3-2.1-5-7-1.4-9.8 15.2-11.9 50-40.4 63-60.8 2.5-3.9-0.5-8.5-5.8-9.1l-9.5-1c-6-0.7-8.8-6.5-4.8-10.2 13.4-12.8 35.9-38.4 36-65.1 0-0.3 0-0.6-0.1-0.9-0.6-3.6-4.4-28-1.9-44.3 0.8-4.9-5.4-8.5-10.9-6.4-28.4 10.9-87 35.8-103.3 60.1-2.3 3.4-8 4.2-11.7 1.7l-8.4-5.7c-3.2-2.2-7.9-1.9-10.6 0.6-10.8 9.9-35.3 34.9-36.7 59.2-0.3 5.1-7.5 7.7-12.4 4.6l-2.2-1.4c-3.6-2.3-8.9-1.5-11.3 1.7-10.8 14.7-36 54.6-27.7 94.5 0.3 1.5 0.5 3.1 0.5 4.6 0.2 8.6 3.1 43.3 54.6 42.2z m36.5-87.9C735.1 256.1 753 218 753 218c5.7 45 10 43.2 14.3 50.8 47.4-52.4 96-121.5 96-121.5-33.7 71.8-66.8 113.4-102.2 153 14.8 1.8 63.5-14.9 63.5-14.9-36.2 29.8-72.6 32.7-81.3 33.8-28.3 25.4-42.6 39.7-42.6 39.7l-17.2-5.5c20.1-19.8 32.2-39.4 63.8-65.1z" fill="#18A4A5" p-id="9905"></path><path d="M431.3 664.2l109.3 25.3c7.2 1.7 7.4 9.9 0.3 11.8l-99.4 26.3-10.2-63.4z" fill="#FF0000" p-id="9906"></path><path d="M442 785.1c-3.2 0-6-2.4-6.4-5.6l-15-110.2c-0.5-3.5 2-6.8 5.5-7.3s6.8 2 7.3 5.5l15 110.2c0.5 3.5-2 6.8-5.5 7.3-0.4 0.1-0.6 0.1-0.9 0.1z" fill="#F5D000" p-id="9907"></path><path d="M783 500c1 5.8 118.5 157.4 5.1 278.8l-29.1-6.1s109.1-74.1 24-272.7z" fill="#FFEF7B" p-id="9908"></path></svg>