<?xml version="1.0" standalone="no"?><!DOCTYPE svg PUBLIC "-//W3C//DTD SVG 1.1//EN" "http://www.w3.org/Graphics/SVG/1.1/DTD/svg11.dtd"><svg t="1625904477166" class="icon" viewBox="0 0 1175 1024" version="1.1" xmlns="http://www.w3.org/2000/svg" p-id="4376" xmlns:xlink="http://www.w3.org/1999/xlink" width="229.4921875" height="200"><defs><style type="text/css"></style></defs><path d="M800.566133 339.032856c-23.292334 0-42.271272-18.116259-42.271272-40.545914s18.978939-40.545914 42.271272-40.545914 42.271272 18.116259 42.271272 40.545914-18.978939 40.545914-42.271272 40.545914z m0-64.700927c-13.802864 0-25.017692 10.352148-25.017692 23.292334s11.214827 23.292334 25.017692 23.292333c13.802864 0 25.017692-10.352148 25.017692-23.292333s-12.077506-23.292334-25.017692-23.292334z" fill="#D53124" p-id="4377"></path><path d="M834.210615 942.045493h-502.079191c-43.99663 0-80.229149-36.232519-80.229149-80.229149v-617.678181c0-43.99663 36.232519-80.229149 80.229149-80.229149h502.079191c43.99663 0 80.229149 36.232519 80.229149 80.229149V861.816344c0 44.859309-36.232519 80.229149-80.229149 80.229149z m-443.417018-751.393429c-62.11289 0-112.148273 50.035383-112.148273 112.148273v500.353833c0 62.11289 50.035383 113.010952 113.010952 113.010952h384.754844c62.11289 0 113.010952-50.898062 113.010952-113.010952v-500.353833c0-62.11289-50.035383-112.148273-112.148273-112.148273h-386.480202z" fill="#2C2F35" p-id="4378"></path><path d="M257.941028 380.441449h648.734625v31.919124h-648.734625z" fill="#2C2F35" p-id="4379"></path><path d="M699.632687 339.032856c-23.292334 0-42.271272-18.116259-42.271272-40.545914s18.978939-40.545914 42.271272-40.545914 42.271272 18.116259 42.271273 40.545914-18.978939 40.545914-42.271273 40.545914z m0-64.700927c-13.802864 0-25.017692 10.352148-25.017691 23.292334s11.214827 23.292334 25.017691 23.292333 25.017692-10.352148 25.017692-23.292333-12.077506-23.292334-25.017692-23.292334zM583.171019 853.189553c-104.384162 0-188.926706-81.954507-188.926706-182.025273s84.542544-182.025274 188.926706-182.025274c104.384162 0 188.926706 81.954507 188.926706 182.025274S687.555181 853.189553 583.171019 853.189553z m0-339.032855c-89.718618 0-163.046335 69.877001-163.046335 156.144903s73.327717 156.144903 163.046335 156.144903c89.718618 0 163.046335-69.877001 163.046336-156.144903s-73.327717-156.144903-163.046336-156.144903z" fill="#D53124" p-id="4380"></path><path d="M583.171019 799.703454c-73.327717 0-132.85257-57.799495-132.852569-128.539174s59.524853-128.539174 132.852569-128.539175 132.85257 57.799495 132.85257 128.539175-59.524853 128.539174-132.85257 128.539174z m0-232.060657c-59.524853 0-106.972199 45.721988-106.972198 102.658804s48.310025 102.658804 106.972198 102.658803 106.972199-45.721988 106.972199-102.658803-47.447346-102.658804-106.972199-102.658804z" fill="#D53124" p-id="4381"></path></svg>