<?xml version="1.0" standalone="no"?><!DOCTYPE svg PUBLIC "-//W3C//DTD SVG 1.1//EN" "http://www.w3.org/Graphics/SVG/1.1/DTD/svg11.dtd"><svg t="1626418781542" class="icon" viewBox="0 0 1024 1024" version="1.1" xmlns="http://www.w3.org/2000/svg" p-id="24431" width="32" height="32" xmlns:xlink="http://www.w3.org/1999/xlink"><defs><style type="text/css"></style></defs><path d="M927.47 303.43L795.69 110.55c-8.88-12.98-22.88-20.63-37.76-20.64H266.11c-14.88 0-28.89 7.66-37.75 20.64L96.57 303.43c-11.87 17.37-11.87 41.14 0 58.5l145.89 213.51v58.62h539.12v-58.62l145.89-213.52c11.88-17.36 11.88-41.12 0-58.49z m0 0" fill="#FFBABF" p-id="24432"></path><path d="M781.58 659.63H242.46c-13 0-23.51-11.43-23.51-25.56v-50.18L77.7 377.18c-18.18-26.63-18.18-62.38 0-89.02L209.49 95.29c13.22-19.37 34.4-30.95 56.63-30.95h491.81c22.23 0 43.4 11.58 56.63 30.97l131.81 192.84c0 0.02 0 0.02 0.02 0.02 18.14 26.61 18.14 62.35 0 88.96l-141.3 206.76v50.18c0 14.13-10.52 25.56-23.51 25.56z m-515.6-51.12h492.08v-33.07c0-5.49 1.63-10.83 4.64-15.25l145.9-213.52c5.69-8.36 5.72-19.62 0-28L776.8 125.8c-4.41-6.46-11.48-10.33-18.88-10.33H266.11c-7.4 0-14.47 3.87-18.88 10.31L115.45 318.67c-5.72 8.36-5.72 19.64 0 28l145.88 213.51c3.01 4.42 4.64 9.76 4.64 15.25l0.01 33.08z m0 0" fill="#006360" p-id="24433"></path><path d="M685.89 363.94h-131.4c-14.14 0-25.71-12.57-25.71-27.95 0-15.37 11.57-27.95 25.71-27.95h131.4c14.14 0 25.71 12.57 25.71 27.95 0 15.37-11.57 27.95-25.71 27.95z m0 0" fill="#F9AAB4" p-id="24434"></path><path d="M685.89 308.05h-131.4c-14.14 0-25.71 12.57-25.71 27.95 0 15.37 11.57 27.95 25.71 27.95h131.4c14.14 0 25.71-12.57 25.71-27.95 0-15.37-11.57-27.95-25.71-27.95z m0 0" fill="#006360" p-id="24435"></path><path d="M799.81 361.99v512.34c0 32.61-21.06 59.04-47.03 59.04H271.26c-25.97 0-47.02-26.43-47.02-59.04V361.99" fill="#FFBABF" p-id="24436"></path><path d="M752.78 958.93H271.25c-38.9 0-70.54-37.94-70.54-84.58V362.01c0-14.13 10.51-25.56 23.51-25.56 13 0 23.52 11.43 23.52 25.56v512.34c0 18.15 10.77 33.47 23.51 33.47h481.52c12.74 0 23.51-15.33 23.51-33.47V362.01c0-14.13 10.51-25.56 23.52-25.56 13 0 23.51 11.43 23.51 25.56v512.34c0.01 46.65-31.63 84.58-70.53 84.58z m0 0" fill="#006360" p-id="24437"></path><path d="M320.51 89.9c38.3 73.87 109.63 123.68 191.52 123.68 81.89 0 153.22-49.82 191.52-123.68H320.51z m0 0" fill="#FFFFFF" p-id="24438"></path><path d="M512.03 239.14c-87.08 0-168.3-52.37-212-136.69-4.11-7.91-4.04-17.59 0.19-25.46 4.22-7.84 11.95-12.65 20.3-12.65h383.03c8.36 0 16.09 4.82 20.3 12.65 4.22 7.86 4.29 17.55 0.19 25.46-43.73 84.33-124.98 136.69-212.01 136.69zM365.96 115.47c37.11 45.57 90.13 72.56 146.07 72.56 55.91 0 108.93-26.99 146.07-72.56H365.96z m0 0" fill="#006360" p-id="24439"></path></svg>