<?xml version="1.0" standalone="no"?><!DOCTYPE svg PUBLIC "-//W3C//DTD SVG 1.1//EN" "http://www.w3.org/Graphics/SVG/1.1/DTD/svg11.dtd"><svg t="1625800926985" class="icon" viewBox="0 0 1024 1024" version="1.1" xmlns="http://www.w3.org/2000/svg" p-id="5249" xmlns:xlink="http://www.w3.org/1999/xlink" width="200" height="200"><defs><style type="text/css"></style></defs><path d="M453.2 100.4c-194.1 0-355.8 157.7-364 358.6-4 99.5 29.9 194.5 95.4 267.7 65.8 73.3 155.5 115.9 252.6 119.8 4.9 0.2 9.8 0.3 14.7 0.3 51.9 0 102.3-11.2 149.7-33.2 12.2-5.7 17.6-20.3 11.9-32.6-4.2-8.9-13-14.2-22.2-14.2-3.5 0-7 0.7-10.4 2.3-40.9 19.1-84.4 28.6-129.3 28.6-4.1 0-8.3-0.1-12.4-0.2-83.8-3.3-161.2-40.2-218-103.6-57-63.6-86.5-146.3-83-233 7-174.3 146.9-311.5 314.6-311.5 4.2 0 8.4 0.1 12.6 0.3 173.3 6.9 308.3 157.9 301.1 336.5-3 74.4-29.5 143.4-76.9 199.5-8.3 9.9-7.6 24.4 1.6 33.4l202.3 197.5c4.8 4.7 10.9 7 17.1 7 6.4 0 12.7-2.5 17.5-7.4 9.5-9.8 9.3-25.3-0.4-34.8L741.2 699.3c45.5-61 71.1-133.6 74.2-211.2 8.3-205.6-147.8-379.5-348.1-387.5-4.7-0.1-9.4-0.2-14.1-0.2z" p-id="5250" fill="#8a8a8a"></path></svg>