<?xml version="1.0" standalone="no"?><!DOCTYPE svg PUBLIC "-//W3C//DTD SVG 1.1//EN" "http://www.w3.org/Graphics/SVG/1.1/DTD/svg11.dtd"><svg t="1626071416923" class="icon" viewBox="0 0 1024 1024" version="1.1" xmlns="http://www.w3.org/2000/svg" p-id="8656" width="16" height="16" xmlns:xlink="http://www.w3.org/1999/xlink"><defs><style type="text/css"></style></defs><path d="M168.4 389.2c5.1 0.9 10.3 1.7 15.4 2.9 44.4 10.3 77.4 48.9 76.2 97-1.2 49.3-36.3 88.3-83.6 95.1C120 592.3 68.7 550.7 65 493.9c-0.1-1.3-0.7-2.7-1-4V485c0.3-1.3 0.9-2.6 1-4 3.1-45.4 35.6-81.6 80.6-89.7 3.5-0.6 7-1.4 10.5-2.1h12.3zM521.6 327.9c10 1.9 20.1 3.4 30 5.9 73.5 18.5 123.3 86.3 119.5 162-3.8 75.4-60.7 138.1-135.4 149.1-88.4 13.1-168.3-48.1-181-138.5C343 422.8 405 342.2 490.2 330.2c4.5-0.6 9-1.5 13.5-2.3h17.9zM960.2 497.2c-3.7 11.6-5.9 23.8-11.2 34.7-18.2 37.5-60.8 58.9-101.4 52.2-42.7-7.1-75.2-39.4-81.6-81.1-8.7-56.1 30.2-106.7 86.6-112.7 1.1-0.1 2.2-0.7 3.3-1.1h12.3c1.1 0.4 2.2 0.9 3.4 1 36.9 4.2 63.6 23.2 79.5 56.5 4.6 9.6 6.2 20.5 9.2 30.8-0.1 6.6-0.1 13.2-0.1 19.7z" fill="" p-id="8657"></path></svg>