<?xml version="1.0" standalone="no"?><!DOCTYPE svg PUBLIC "-//W3C//DTD SVG 1.1//EN" "http://www.w3.org/Graphics/SVG/1.1/DTD/svg11.dtd"><svg t="1625905817959" class="icon" viewBox="0 0 1024 1024" version="1.1" xmlns="http://www.w3.org/2000/svg" p-id="18806" width="600" height="600" xmlns:xlink="http://www.w3.org/1999/xlink"><defs><style type="text/css"></style></defs><path d="M615.175665 496.113203c5.060239 0.00921 10.118431 0.002047 16.160019 0.002047-1.274014 2.845809-1.973954 4.603845-2.824319 6.285134-4.373602 8.64385-8.860791 17.233465-13.159691 25.913131-3.532446 7.130383-0.290618 13.232346 7.452724 13.280441 29.081281 0.181125 58.164608 0.157589 87.247935-0.016373 6.790646-0.039909 9.867722-5.126754 7.348347-11.491706-1.452069-3.665475-3.374857-7.14471-5.103218-10.701715-4.494352-9.2476-5.519703-9.713203-16.48236-7.033169 2.666731 5.707991 5.283319 11.309558 8.051357 17.229372-25.508926 0-50.227861 0-75.618084 0 3.797482-7.769948 8.033961-14.586177 10.528776-21.98876 3.281736-9.739809 9.193365-12.209042 19.030387-11.720926 17.566039 0.869809 35.204733 0.298805 52.812727 0.212847 8.184387-0.038886 11.57357-2.557237 12.872143-9.275229-38.492609 0-76.941216 0-115.328425 0C606.710893 495.806212 606.934996 496.09376 615.175665 496.113203z" p-id="18807" fill="#ee449e"></path><path d="M724.16472 469.373242c-0.900508-4.792133 3.02284-10.374258-2.681057-14.347748-16.876332-11.757765-31.10333-26.279474-44.369445-41.852117-7.267506-8.527194-15.707719-8.390071-22.891314 0.35918-12.228485 14.890099-25.438318 28.75894-40.958772 40.299764-6.033401 4.485142-7.066938 8.582452-4.079914 16.170252 22.023552-13.054291 40.193341-30.418739 55.051717-48.730767 13.068617 13.467706 25.696191 26.484135 37.519447 38.667594-23.002854 0-48.781932 0-74.444354 0-1.355878 10.475565-1.355878 10.478635 8.021681 10.479658 19.204349 0.001023 38.407675-0.082888 57.609977 0.042979 7.183595 0.048095 12.824048-1.770316 14.316025-10.168573 5.515609 3.557005 10.554359 6.808043 15.595155 10.061126C723.290818 470.028157 723.727769 469.699676 724.16472 469.373242z" p-id="18808" fill="#ee449e"></path><path d="M408.002622 531.544086c0-9.281369 0-18.070528 0-27.771451 7.916281 0.380669 15.379238 0.559747 22.808426 1.165543 3.969397 0.324387 6.753807-0.274246 6.941072-4.895487 0.169868-4.157685-1.537003-5.930048-6.011912-5.733573-7.831347 0.345877-15.688276 0.095167-23.73247 0.095167 0-8.212016 0-15.610505 0-23.571811 7.932654 0 15.460079-0.462533 22.895407 0.183171 4.068657 0.354063 6.491842 0.515745 6.704689-4.389975 0.218987-5.03261-2.488676-5.701851-6.67399-5.563705-7.623616 0.252756-15.261558 0.071631-23.303705 0.071631 0-9.59757 0-18.246536 0-27.833873 7.997122 0 16.053596 0.106424 24.105976-0.033769 6.465236-0.112563 8.641804-2.644218 8.356302-9.883072-23.808194 0-47.653228 0-72.232994 0 3.210105-7.569381 6.066147-14.304769 9.014286-21.257097-10.960611-2.20522-12.823024-1.159404-17.250861 7.208154-5.180989 9.786881-10.666922 19.414126-16.082248 29.073094-0.554631 0.991582-1.530863 1.74678-3.395323 3.813855 0-7.429188 0-13.248719 0-19.289283-13.853492 0-27.052069 0-40.796067 0 0 37.534796 0 74.463797 0 112.126506 9.634409 0 18.885078 0.10233 28.131654-0.029676 8.749251-0.12689 13.064524-4.557797 13.09113-13.262022 0.046049-14.649622 0.853436-29.366783-0.255826-43.933517-0.867762-11.405748 5.474677-18.194348 12.829164-27.055139 0 3.654219 0 5.745853 0 7.83544 0 18.412312-0.002047 36.82667 0.001023 55.238981 0.001023 6.928792-0.020466 13.858608 0.034792 20.788424 0.035816 4.413511 1.842971 7.089451 6.752784 7.056705 24.153048-0.155542 48.306096-0.142239 72.45812-0.389879 5.769389-0.061398 8.002238-3.14666 7.61543-9.764368C429.431634 531.544086 418.816901 531.544086 408.002622 531.544086zM327.510541 524.064756c-4.889347 0-9.68762 0-14.880889 0 0-29.581676 0-59.15312 0-89.3058 4.712316 0 9.486029 0 14.880889 0C327.510541 464.704929 327.510541 494.137203 327.510541 524.064756zM394.608594 531.331239c-9.490123 0-18.697813 0-28.754847 0 0-8.205876-0.099261-16.441428 0.143263-24.665723 0.025583-0.884135 2.013863-2.420114 3.122101-2.448767 8.276484-0.208754 16.561154-0.113587 25.489483-0.113587C394.608594 513.717104 394.608594 522.334349 394.608594 531.331239zM394.87056 494.044082c-9.861582 0-19.011968 0-29.022952 0 0-6.957445-0.118703-13.766511 0.140193-20.56125 0.034792-0.924044 1.936091-2.512212 3.010561-2.543934 7.47319-0.22615 14.96173-0.252756 22.43492 0.00921 1.177823 0.039909 3.235688 1.819435 3.283783 2.869345C395.019962 480.433113 394.87056 487.069241 394.87056 494.044082zM394.897166 460.789767c-9.93833 0-19.099972 0-28.677076 0 0-9.014286 0-17.768653 0-27.421481 8.689899 0 17.298957-0.113587 25.893688 0.158612 0.963953 0.029676 2.619659 2.228756 2.659567 3.464908C395.019962 444.662494 394.897166 452.344438 394.897166 460.789767z" p-id="18809" fill="#ee449e"></path><path d="M401.288724 422.041332c1.778503-1.070376 2.817156-1.625007 3.784179-2.286061 6.039541-4.146428 6.156198-4.756318 1.869577-10.618827-2.777247-3.795435-5.62101-7.543798-8.298997-11.132526-2.213407 1.617844-4.550634 2.68822-5.883999 4.496398-1.112332 1.507327-2.079354 4.493329-1.325179 5.763249C394.220762 412.961554 397.749115 417.221569 401.288724 422.041332z" p-id="18810" fill="#ee449e"></path><path d="M478.511348 470.72912c26.690842-0.561794 53.383731-0.95065 80.071503-1.636263 7.403606-0.191358 10.850094-4.237502 10.986193-11.944006 0.12689-7.116057 0.028653-14.237231 0.029676-21.356358 0-6.65864 0-13.31728 0-20.253236-32.096958 0-63.283175 0-94.647448 0-0.391925 0.82069-0.705057 1.17066-0.707103 1.521653-0.104377 16.605156-0.158612 33.208266-0.278339 49.813423C473.942295 470.114114 475.690099 470.788472 478.511348 470.72912zM487.012959 425.564568c23.25254 0 46.450845 0 69.977631 0 0 10.29751 0 20.34431 0 30.839317-23.253564 0-46.468242 0-69.977631 0C487.012959 446.164704 487.012959 436.137347 487.012959 425.564568z" p-id="18811" fill="#ee449e"></path><path d="M586.729856 499.742863c0-7.272623 0-14.547292 0-21.85573-19.738514 0-38.801647 0-58.136979 0 0 21.347148 0 42.062917 0 63.406995 16.871216 0 33.06705 0.255826 49.247536-0.134053 5.882976-0.144286 8.820882-4.285598 8.867954-10.533893C586.786137 520.332766 586.729856 510.036279 586.729856 499.742863zM573.464764 531.050853c-10.541056 0-21.045273 0-31.984395 0 0-14.091921 0-28.371108 0-43.03301 10.953448 0 21.305192 0 31.984395 0C573.464764 502.516017 573.464764 516.462629 573.464764 531.050853z" p-id="18812" fill="#ee449e"></path><path d="M516.082984 478.609585c-1.369181-0.441044-1.919719-0.767478-2.473326-0.774641-17.41152-0.212847-34.820994-0.325411-52.228421-0.634449-3.7412-0.065491-4.142335 1.915625-4.135172 4.839205 0.047072 18.007083 0.115633 36.01519-0.049119 54.020226-0.036839 4.140289 1.410113 5.566775 5.507423 5.518679 13.452356-0.166799 26.910853 0.037862 40.364232-0.100284 8.807579-0.090051 12.940704-4.429884 12.996986-13.364352 0.070608-11.079314 0.018419-22.160675 0.017396-33.242035C516.082984 489.384978 516.082984 483.894951 516.082984 478.609585zM502.890546 531.431523c-10.920702 0-21.512923 0-32.452045 0 0-14.581061 0-28.884806 0-43.607083 10.868513 0 21.431059 0 32.452045 0C502.890546 502.225399 502.890546 516.535284 502.890546 531.431523z" p-id="18813" fill="#ee449e"></path><path d="M717.249231 577.592773c-0.406252-6.023168-4.130056-9.666131-10.133781-9.301835-4.916976 0.298805-9.737762 2.166335-15.272814 3.501747-5.865579-5.902418-12.993916-4.486165-19.080529-0.92302-2.773154-0.838086-4.596682-1.681289-6.462166-1.782596-0.583283-0.029676-1.821481 1.916649-1.838878 2.974745-0.144286 9.643618-0.083911 19.292353-0.083911 29.120166 2.324947 0 3.986793 0 6.227829 0 0-7.055682-0.067538-13.738882 0.023536-20.420034 0.064468-4.714362 3.844554-7.648175 9.69683-7.887628 4.998841-0.201591 7.310485 2.276852 7.37086 7.107871 0.068561 5.535052 0.287548 11.079314 0.088004 16.605156-0.153496 4.230339 1.146101 6.029308 5.710037 4.440117 0.257873-0.759292 0.489139-1.128704 0.491186-1.497094 0.059352-5.734596 0.106424-11.467146 0.11768-17.196626 0.011256-6.172571 3.263317-9.313091 9.843163-9.443051 5.432722-0.109494 7.275693 2.065028 7.353464 8.947772 0.072655 6.455003 0.016373 12.906935 0.016373 19.361938 0.624216 0.391925 1.252524 0.782828 1.877763 1.17373 1.457185-1.345645 4.095263-2.626822 4.168941-4.045121C717.731207 591.437055 717.714834 584.484726 717.249231 577.592773z" p-id="18814" fill="#ee449e"></path><path d="M381.566583 568.170188c-5.579054 0.208754-10.98517 3.399416-16.760699 1.021258-0.150426-0.061398-0.551561 0.485046-1.210569 1.091866 0 13.066571-0.00921 26.469809 0.020466 39.87407 0.002047 0.956789 0.278339 1.910509 0.45844 3.065819 1.829668 0 3.498677 0 5.817484 0 0-4.201687 0-8.077963 0-12.2643 3.150753 0.580213 5.600544 1.251501 8.088196 1.451045 9.933213 0.795107 17.245745-6.118336 17.552736-16.441428C395.880561 574.272151 390.987121 567.817148 381.566583 568.170188zM378.128281 597.702746c-7.622593 0.01228-8.289787-0.974186-8.288764-12.248951 0-9.577104 2.45286-12.575385 10.287277-12.571292 6.099916 0.00307 9.203598 3.999073 9.222017 11.877491C389.369277 593.133693 385.413183 597.69456 378.128281 597.702746z" p-id="18815" fill="#ee449e"></path><path d="M531.668929 570.716169c-3.220338-0.877995-5.430675-1.480721-7.876372-2.147915 0 15.705672 0 30.208962 0 45.147156 2.158148-0.261966 3.802598-0.46151 5.743806-0.698917 0-4.21192 0-7.9347 0-12.123084 12.461798 2.755758 19.250398 0.875948 23.331335-6.07638 4.012376-6.834648 3.234664-17.545573-1.656729-22.849358C546.663405 567.042507 539.888108 566.828637 531.668929 570.716169zM538.019555 597.702746c-7.744366 0.144286-8.549706-0.981349-8.549706-11.941959 0.001023-9.827813 2.225687-12.698181 9.979262-12.873166 6.431467-0.144286 9.540265 3.86195 9.454307 12.178343C548.818483 593.259559 545.100819 597.572787 538.019555 597.702746z" p-id="18816" fill="#ee449e"></path><path d="M460.252532 568.251029c-4.349043 0.150426-8.651013 1.649566-13.665204 2.690267 0-5.070472 0-10.284207 0-15.251325-4.544494-1.325179-6.09173-0.098237-6.030331 4.056378 0.185218 12.466914 0.168845 24.937922 0.00921 37.404837-0.054235 4.324483 1.766223 5.13801 6.180757 3.704361 0-6.223736 0.465603-12.190622-0.118703-18.053132-0.710173-7.131407 3.371787-9.119687 10.339465-9.834976 5.631243-0.57612 7.776088 1.951441 8.030891 9.071591 0.224104 6.276948 0.047072 12.568222 0.047072 19.148067 2.328017 0 3.960187 0 6.006795 0 0-8.022705 0.360203-15.713859-0.112563-23.349754C470.557205 571.660679 466.504921 568.035112 460.252532 568.251029z" p-id="18817" fill="#ee449e"></path><path d="M496.380285 568.091394c-10.304673 0.106424-16.670648 6.821345-16.545805 17.449382 0.124843 10.475565 6.814182 17.082016 17.145461 16.929544 10.232018-0.152472 16.71158-7.00861 16.574457-17.533293C513.4183 574.512627 506.764776 567.987017 496.380285 568.091394zM496.562434 597.696606c-6.512308-0.083911-10.364024-4.793157-10.307743-12.597897 0.059352-7.932654 3.818971-12.280673 10.570732-12.220298 6.714922 0.060375 10.256578 4.376672 10.237135 12.478171C507.044138 593.196115 503.142279 597.781541 496.562434 597.696606z" p-id="18818" fill="#ee449e"></path><path d="M637.490858 568.091394c-10.330255 0.080841-16.60618 6.695479-16.522269 17.410497 0.080841 10.51138 6.712875 17.117832 17.047224 16.970476 10.313883-0.146332 16.552968-6.775297 16.464964-17.493384C654.393796 574.273174 648.089219 568.005436 637.490858 568.091394zM637.617748 597.69149c-6.440676-0.10233-10.384491-4.845345-10.371188-12.472031 0.017396-7.798601 3.783155-12.266347 10.395747-12.328768 6.89093-0.065491 10.674086 4.44421 10.604501 12.643946C648.18234 593.149043 644.119823 597.795867 637.617748 597.69149z" p-id="18819" fill="#ee449e"></path><path d="M425.228924 584.292345c-2.968605-1.659799-6.959492-1.381461-10.235088-2.643195-2.054795-0.791014-3.612264-2.873438-5.394859-4.374625 2.09061-1.442859 4.164848-4.058424 6.272854-4.084007 4.536307-0.061398 9.090011 1.211592 14.671112 2.10289-0.886181-2.044562-1.162474-4.482072-2.492769-5.418395-4.340856-3.063773-17.117832-2.501979-20.949083 1.215685-2.001583 1.940185-3.792365 5.502306-3.458768 8.043171 0.327457 2.494816 3.03819 5.441931 5.475701 6.705712 3.226478 1.670032 7.318671 1.579982 10.809162 2.868322 1.916649 0.707103 3.360531 2.692313 5.01726 4.10038-1.75906 1.541096-3.558029 4.427837-5.265923 4.373602-5.333461-0.163729-10.633153-1.441836-17.29077-2.503002 0.92609 1.970884 1.357925 4.993724 2.781341 5.569845 7.176432 2.903114 14.810281 3.842507 21.603997-0.603749 2.323924-1.519607 4.420674-5.559611 4.174058-8.215086C430.703602 588.828653 427.784115 585.723948 425.228924 584.292345z" p-id="18820" fill="#ee449e"></path><path d="M617.045241 577.399368c-1.207499-3.371787-1.313923-6.148011-2.70357-7.154943-10.16141-7.360627-26.582372 0.318248-27.69368 12.73809-1.306759 14.625063 10.39063 23.102115 25.070952 18.338634 3.981676-1.293456 5.446025-3.379974 3.787249-7.625663-6.639197 3.49663-13.432914 7.007587-19.903266 0.161682-3.529376-3.730967-3.775992-12.594828-0.371459-16.680881C601.542183 569.603837 608.622425 573.273406 617.045241 577.399368z" p-id="18821" fill="#ee449e"></path><path d="M329.445609 572.7945c-2.778271 6.936979-5.925954 13.726602-9.465563 21.826054-3.546772-8.078986-6.758924-14.865539-9.500356-21.838334-1.617844-4.114706-4.034888-4.662174-8.221226-3.160987 4.544494 10.04373 8.830092 19.772283 13.361282 29.387249 1.625007 3.450582 6.445793 3.931535 7.995075 0.733709 4.79111-9.888188 9.182108-19.971827 13.764464-30.061606C333.027174 567.893896 330.92019 569.112651 329.445609 572.7945z" p-id="18822" fill="#ee449e"></path><path d="M347.668609 568.262286c-0.506536 0.436951-1.013071 0.873902-1.518583 1.308806 0 9.656921-0.164752 19.321006 0.199544 28.962577 0.048095 1.257641 2.811017 2.412951 4.316297 3.618403 0.519839-0.438997 1.039677-0.874925 1.558492-1.310853 0-9.654875 0.166799-19.315889-0.201591-28.955414C351.974673 570.623048 349.187193 569.467738 347.668609 568.262286z" p-id="18823" fill="#ee449e"></path><path d="M566.767238 601.246448c2.519375 0 4.597706 0 6.994284 0 0-2.768038 0-5.200432 0-7.733109-2.617612 0-4.846368 0-6.994284 0C566.767238 596.359148 566.767238 598.794612 566.767238 601.246448z" p-id="18824" fill="#ee449e"></path><path d="M346.973786 563.19693c0.80227 0.770548 3.574401 0.778734 4.315274 0.00921 1.021258-1.055027 0.954743-3.16508 1.440812-5.180989-2.758828 0-4.622265 0-7.434305 0C345.886014 560.073806 345.910573 562.176696 346.973786 563.19693z" p-id="18825" fill="#ee449e"></path></svg>