<?xml version="1.0" standalone="no"?><!DOCTYPE svg PUBLIC "-//W3C//DTD SVG 1.1//EN" "http://www.w3.org/Graphics/SVG/1.1/DTD/svg11.dtd"><svg t="1625904832845" class="icon" viewBox="0 0 1328 1024" version="1.1" xmlns="http://www.w3.org/2000/svg" p-id="15566" xmlns:xlink="http://www.w3.org/1999/xlink" width="259.375" height="200"><defs><style type="text/css"></style></defs><path d="M1148.925603 512c0-94.180602 73.888963-169.78194 164.987291-169.78194V124.404013A106.167224 106.167224 0 0 0 1209.629282 17.123746H123.812559A106.167224 106.167224 0 0 0 19.528947 124.404013V342.474916c91.183946 0 165.07291 75.943813 165.07291 169.78194s-73.888963 169.525084-165.07291 169.525084v217.728428a106.167224 106.167224 0 0 0 104.283612 107.365886h1085.816723a106.167224 106.167224 0 0 0 104.283612-107.365886V681.78194c-91.098328 0-164.987291-76.029431-164.987291-169.78194z" fill="#FFF100" p-id="15567"></path><path d="M90.164399 22.089632A107.280268 107.280268 0 0 0 17.131623 124.404013V342.474916a160.192642 160.192642 0 0 1 73.032776 17.123746zM90.164399 664.058863A160.278261 160.278261 0 0 1 17.131623 681.78194v217.728428a107.537124 107.537124 0 0 0 73.032776 102.742475z" fill="#FFFFFF" p-id="15568"></path><path d="M1240.880118 22.089632a107.280268 107.280268 0 0 1 73.032776 102.742475V342.474916a160.192642 160.192642 0 0 0-73.032776 17.123746zM1240.880118 664.058863a160.278261 160.278261 0 0 0 73.032776 17.723077v217.728428a107.537124 107.537124 0 0 1-73.032776 102.742475z" fill="#F8B62D" p-id="15569"></path><path d="M1040.361054 1024h-80.224749a17.123746 17.123746 0 0 1 0-34.247492h80.224749a17.123746 17.123746 0 1 1 0 34.247492zM882.394499 1024H121.415235A123.119732 123.119732 0 0 1 0.007877 899.510368V664.658194h17.123746c81.50903 0 147.863545-68.494983 147.863545-152.658194S98.640653 359.598662 17.131623 359.598662H0.007877V124.404013A123.034114 123.034114 0 0 1 121.415235 0h99.6602a17.123746 17.123746 0 0 1 0 34.247492H121.415235A88.786622 88.786622 0 0 0 34.255369 124.404013v201.46087a187.419398 187.419398 0 0 1 0 372.184615v201.46087a88.872241 88.872241 0 0 0 87.159866 90.24214h760.979264a17.123746 17.123746 0 0 1 0 34.247492zM1207.231957 1024h-86.303679a17.123746 17.123746 0 0 1 0-34.247492H1207.231957a88.872241 88.872241 0 0 0 87.159866-90.24214V698.049498a187.419398 187.419398 0 0 1 0-372.184615V124.404013A88.786622 88.786622 0 0 0 1207.231957 34.247492H327.413897a17.123746 17.123746 0 0 1 0-34.247492H1207.231957a123.034114 123.034114 0 0 1 121.407358 124.404013V359.598662h-17.123746c-81.594649 0-147.949164 68.494983-147.949164 152.658194s66.354515 152.658194 147.949164 152.658194h17.123746v234.852174A123.119732 123.119732 0 0 1 1207.231957 1024z" fill="#231815" p-id="15570"></path><path d="M539.40587 209.252174L661.32694 393.846154a6.592642 6.592642 0 0 0 10.873579 0l121.92107-184.59398a6.335786 6.335786 0 0 1 5.39398-2.911037h105.653512a6.507023 6.507023 0 0 1 5.308361 10.188629L760.302191 431.946488a6.507023 6.507023 0 0 0 5.39398 10.188629H856.195168a6.507023 6.507023 0 0 1 6.507023 6.507023v82.622074a6.507023 6.507023 0 0 1-6.421404 6.507023l-129.198663 0.770569a6.507023 6.507023 0 0 0-6.507023 6.507023v46.919064a6.507023 6.507023 0 0 0 6.507023 6.507023H856.195168a6.507023 6.507023 0 0 1 6.507023 6.507024v83.221404a6.507023 6.507023 0 0 1-6.507023 6.421405H727.167743a6.507023 6.507023 0 0 0-6.507023 6.507024v110.020066a6.507023 6.507023 0 0 1-6.507024 6.507024H619.288144a6.507023 6.507023 0 0 1-6.507023-6.507024V701.131773a6.507023 6.507023 0 0 0-6.507023-6.507024h-128.428094a6.507023 6.507023 0 0 1-6.507023-6.421405v-83.221404a6.507023 6.507023 0 0 1 6.507023-6.507024h128.428094a6.507023 6.507023 0 0 0 6.507023-6.507023v-46.919064a6.421405 6.421405 0 0 0-6.421405-6.507023l-128.428093-0.770569a6.592642 6.592642 0 0 1-6.421405-6.507023V448.64214a6.507023 6.507023 0 0 1 6.507023-6.507023h89.814047a6.507023 6.507023 0 0 0 5.308361-10.188629L422.964399 216.529766a6.507023 6.507023 0 0 1 5.137123-10.188629h105.82475a6.421405 6.421405 0 0 1 5.479598 2.911037z" fill="#FFFFFF" p-id="15571"></path><path d="M714.153696 834.782609H619.288144a23.716388 23.716388 0 0 1-23.630769-23.63077V711.748495H478.017241a23.630769 23.630769 0 0 1-23.630769-23.545151v-83.221404a23.716388 23.716388 0 0 1 23.630769-23.630769h117.640134v-25.685619l-117.811371-0.68495a23.716388 23.716388 0 0 1-23.459532-23.630769V448.64214a23.716388 23.716388 0 0 1 23.630769-23.630769h69.43679L408.922927 226.290301A23.630769 23.630769 0 0 1 428.101522 189.217391h105.82475a23.802007 23.802007 0 0 1 19.777926 10.531104l113.016722 171.237458 113.102342-171.237458a23.545151 23.545151 0 0 1 19.692307-10.531104h105.653512a23.545151 23.545151 0 0 1 19.52107 37.07291L786.073429 425.011371H856.195168a23.630769 23.630769 0 0 1 23.630769 23.630769v82.622074a23.716388 23.716388 0 0 1-23.630769 23.630769l-118.667559 0.68495v25.685619H856.195168a23.630769 23.630769 0 0 1 23.630769 23.630769v83.221405a23.545151 23.545151 0 0 1-23.630769 23.630769H737.784466v99.403344a23.630769 23.630769 0 0 1-23.63077 23.63077z m-84.248829-34.247492h73.632107V701.131773a23.716388 23.716388 0 0 1 23.630769-23.63077h118.496321V615.598662H727.167743a23.716388 23.716388 0 0 1-23.630769-23.630769v-46.919064a23.630769 23.630769 0 0 1 23.54515-23.630769l118.58194-0.770568v-61.388629h-79.967893A23.545151 23.545151 0 0 1 744.89082 446.501672a23.288294 23.288294 0 0 1 1.626756-24.401338l138.445485-198.635451h-79.711037l-118.838796 179.799331a23.545151 23.545151 0 0 1-39.384615 0l-118.753178-179.799331h-79.625418l138.531104 198.635451a23.630769 23.630769 0 0 1-19.349833 37.158529h-79.197324v61.388629l117.811371 0.770568a23.545151 23.545151 0 0 1 23.459532 23.630769v46.919064a23.716388 23.716388 0 0 1-23.630769 23.630769H488.633964v61.902341h117.640134a23.716388 23.716388 0 0 1 23.630769 23.63077z m144.524415-358.828094zM436.663395 206.683612z" fill="#231815" p-id="15572"></path></svg>